HIERARCHY
ROOT Pelvis
{
	OFFSET 0.000000 0.000000 0.000000
	CHANNELS 6 Xposition Yposition Zposition Xrotation Yrotation Zrotation
	JOINT LeftUpLeg_virtual
	{
		OFFSET 0.000000 0.000000 0.000000
		CHANNELS 3 Xrotation Yrotation Zrotation
		JOINT LeftUpLeg
		{
			OFFSET 18.735201 -5.666702 -4.541200
			CHANNELS 3 Xrotation Yrotation Zrotation
			JOINT LeftLeg
			{
				OFFSET -0.021200 -31.938179 0.493100
				CHANNELS 3 Xrotation Yrotation Zrotation
				JOINT LeftFoot
				{
					OFFSET 0.021200 -31.938179 -4.336299
					CHANNELS 3 Xrotation Yrotation Zrotation
					JOINT LeftToeBase
					{
						OFFSET 0.943001 -26.722000 15.023500
						CHANNELS 3 Xrotation Yrotation Zrotation
						End Site
						{
							OFFSET 0 0 0
						}
					}
				}
			}
		}
	}
	JOINT RightUpLeg_virtual
	{
		OFFSET 0.000000 0.000000 0.000000
		CHANNELS 3 Xrotation Yrotation Zrotation
		JOINT RightUpLeg
		{
			OFFSET -18.735201 -5.666702 -4.541200
			CHANNELS 3 Xrotation Yrotation Zrotation
			JOINT RightLeg
			{
				OFFSET 0.018946 -31.938133 0.493100
				CHANNELS 3 Xrotation Yrotation Zrotation
				JOINT RightFoot
				{
					OFFSET -0.018946 -31.938126 -4.336299
					CHANNELS 3 Xrotation Yrotation Zrotation
					JOINT RightToeBase
					{
						OFFSET -0.943001 -26.722004 15.023500
						CHANNELS 3 Xrotation Yrotation Zrotation
						End Site
						{
							OFFSET 0 0 0
						}
					}
				}
			}
		}
	}
	JOINT Hips_virtual
	{
		OFFSET 0.000000 0.000000 0.000000
		CHANNELS 3 Xrotation Yrotation Zrotation
		JOINT Hips
		{
			OFFSET -0.000000 -0.000000 -0.000000
			CHANNELS 3 Xrotation Yrotation Zrotation
			JOINT Spine
			{
				OFFSET 0.000000 10.199997 -0.299500
				CHANNELS 3 Xrotation Yrotation Zrotation
				JOINT Spine1
				{
					OFFSET 0.000000 11.900002 -1.516600
					CHANNELS 3 Xrotation Yrotation Zrotation
					JOINT Spine2
					{
						OFFSET 0.000000 13.600006 -2.842500
						CHANNELS 3 Xrotation Yrotation Zrotation
						JOINT Neck_virtual
						{
							OFFSET 0.000000 0.000000 0.000000
							CHANNELS 3 Xrotation Yrotation Zrotation
							JOINT Neck
							{
								OFFSET 0.000000 9.624100 -2.890100
								CHANNELS 3 Xrotation Yrotation Zrotation
								JOINT Head
								{
									OFFSET 0.000000 14.068802 -1.351900
									CHANNELS 3 Xrotation Yrotation Zrotation
									End Site
									{
										OFFSET 0 0 0
									}
								}
							}
						}
						JOINT LeftShoulder_virtual
						{
							OFFSET 0.000000 0.000000 0.000000
							CHANNELS 3 Xrotation Yrotation Zrotation
							JOINT LeftShoulder
							{
								OFFSET 15.263000 10.923401 -0.547700
								CHANNELS 3 Xrotation Yrotation Zrotation
								JOINT LeftArm
								{
									OFFSET 25.438599 -2.830597 -13.032500
									CHANNELS 3 Xrotation Yrotation Zrotation
									JOINT LeftForeArm
									{
										OFFSET 29.960503 0.000000 0.000000
										CHANNELS 3 Xrotation Yrotation Zrotation
										JOINT LeftHand
										{
											OFFSET 27.849251 0.000000 0.000000
											CHANNELS 3 Xrotation Yrotation Zrotation
											End Site
											{
												OFFSET 0 0 0
											}
										}
									}
								}
							}
						}
						JOINT RightShoulder_virtual
						{
							OFFSET 0.000000 0.000000 0.000000
							CHANNELS 3 Xrotation Yrotation Zrotation
							JOINT RightShoulder
							{
								OFFSET -15.263000 10.923401 -0.547700
								CHANNELS 3 Xrotation Yrotation Zrotation
								JOINT RightArm
								{
									OFFSET -25.438599 -2.830597 -13.032500
									CHANNELS 3 Xrotation Yrotation Zrotation
									JOINT RightForeArm
									{
										OFFSET -29.960503 0.000000 0.000000
										CHANNELS 3 Xrotation Yrotation Zrotation
										JOINT RightHand
										{
											OFFSET -27.849251 0.000000 0.000000
											CHANNELS 3 Xrotation Yrotation Zrotation
											End Site
											{
												OFFSET 0 0 0
											}
										}
									}
								}
							}
						}
					}
				}
			}
		}
	}
}
MOTION
Frames: 12
Frame Time: 0.03333333
-4.076784 78.315048 4.021587 0.000000 0.000000 0.000000 -7.336357 -21.920901 2.924697 -55.629709 1.094277 21.957933 49.241638 -10.065458 -1.455355 -4.101888 -9.574603 -14.820635 0.000000 0.000000 0.000000 9.522978 -35.315302 -1.587838 -22.434648 -14.305349 -23.039157 46.033016 6.411826 0.644011 -12.364336 1.238019 17.265721 0.000000 0.000000 0.000000 2.257941 -20.028755 1.451723 3.306399 -37.850771 6.659264 10.589136 6.028797 -4.454128 4.874292 4.080580 -3.078203 0.000000 0.000000 0.000000 -0.968077 5.437743 -2.385905 -2.393050 2.501626 -0.448509 0.000000 0.000000 0.000000 -3.017959 3.745987 -3.357606 -3.745696 -3.250559 -9.997424 -30.758691 13.304829 -48.810028 -11.905171 -28.393522 -8.736554 0.000000 0.000000 0.000000 -3.589263 5.483547 -1.653190 -5.141664 21.500563 0.754342 -22.338342 -14.178478 47.242308 -10.385392 26.652513 12.665834 0.000000 0.000000 0.000000 
-3.350524 78.162720 4.118517 0.000000 0.000000 0.000000 -8.612948 -19.383862 2.658511 -57.020154 1.481443 21.978116 49.849179 -11.291978 -1.684311 -3.271694 -10.890974 -16.264101 0.000000 0.000000 0.000000 9.853958 -35.235880 -2.544992 -21.063772 -14.366502 -23.787636 47.056995 6.869026 0.561870 -11.774386 1.733666 17.497111 0.000000 0.000000 0.000000 0.077597 -18.281360 -0.224121 6.453212 -34.779962 7.546934 10.873264 5.851901 -4.992712 5.265660 4.245398 -3.195634 0.000000 0.000000 0.000000 -0.877567 5.568902 -2.722694 -2.388665 2.628755 -0.381137 0.000000 0.000000 0.000000 -3.404957 3.708401 -3.375533 -3.357438 -3.918322 -8.382112 -33.139552 13.461203 -47.666797 -11.562314 -28.745872 -8.124834 0.000000 0.000000 0.000000 -4.315057 5.989628 -2.258382 -4.757844 22.184458 -0.356222 -18.327605 -16.589997 46.395020 -9.822046 23.319729 12.928964 0.000000 0.000000 0.000000 
-3.031787 78.109451 3.566202 0.000000 0.000000 0.000000 -9.953018 -19.421925 1.472511 -58.253645 1.675217 21.063088 50.411304 -11.288013 -1.707595 -2.361010 -11.050099 -16.434607 0.000000 0.000000 0.000000 10.049669 -34.231918 -2.218304 -20.671392 -14.193476 -23.287571 46.866497 7.400216 0.330857 -12.023801 2.289454 17.483848 0.000000 0.000000 0.000000 2.037725 -17.412555 1.405208 4.555806 -34.384528 7.507506 11.761428 5.686531 -5.234583 5.022887 4.302148 -2.991842 0.000000 0.000000 0.000000 -0.535662 5.724035 -2.658560 -2.600647 2.619435 -0.481586 0.000000 0.000000 0.000000 -3.825411 4.215676 -2.678268 -3.747400 -5.581520 -6.242452 -33.530427 13.805202 -48.396221 -11.559035 -26.751355 -8.386031 0.000000 0.000000 0.000000 -4.766338 6.520986 -2.304551 -4.539035 23.474609 -0.746232 -12.494745 -13.531932 49.835744 -7.950790 19.805341 12.754135 0.000000 0.000000 0.000000 
-3.850239 77.962624 4.625172 0.000000 0.000000 0.000000 -10.249452 -17.742796 0.686874 -58.675218 2.387861 20.591379 50.988913 -10.894291 -1.530930 -1.571377 -10.864523 -15.974820 0.000000 0.000000 0.000000 10.470910 -34.437414 -2.139913 -20.081202 -14.331972 -23.264295 47.271340 7.766979 0.809210 -11.987592 2.284993 18.403572 0.000000 0.000000 0.000000 0.510619 -17.277739 0.288636 4.808608 -36.485170 5.201688 10.725617 5.293846 -4.487355 5.615626 4.414503 -3.395183 0.000000 0.000000 0.000000 -0.331417 5.833552 -2.913894 -2.353076 2.789555 -0.610239 0.000000 0.000000 0.000000 -3.790994 4.006113 -2.792198 -3.976948 -5.901471 -4.571306 -35.169675 12.766558 -49.267118 -12.425612 -29.146876 -9.337355 0.000000 0.000000 0.000000 -4.820077 6.872543 -2.608180 -4.900060 22.719899 -0.473306 -6.971484 -16.693892 50.414084 -5.615177 17.339248 12.876333 0.000000 0.000000 0.000000 
-4.037121 78.318542 3.859659 0.000000 0.000000 0.000000 -10.281142 -17.158494 0.593400 -58.571392 2.551519 20.469122 50.833792 -11.145984 -2.031528 -1.738897 -10.841419 -16.934225 0.000000 0.000000 0.000000 10.338624 -33.486765 -2.638398 -20.125149 -13.973507 -23.561468 49.098958 7.942696 0.392358 -11.054164 2.717976 18.089604 0.000000 0.000000 0.000000 1.861948 -16.110739 0.356228 1.136403 -37.667841 5.442092 11.359210 5.605326 -5.013187 5.481963 4.286105 -3.261260 0.000000 0.000000 0.000000 -0.272794 5.699923 -3.158805 -2.544997 2.730315 -0.685989 0.000000 0.000000 0.000000 -4.350958 3.941297 -2.800515 -4.080650 -6.208751 -3.948408 -33.711645 11.750720 -49.938556 -11.931290 -29.082686 -9.844054 0.000000 0.000000 0.000000 -5.282958 6.729037 -2.390382 -4.639193 22.473037 -0.207025 -3.148743 -16.215740 49.032361 -3.757112 17.338558 12.363140 0.000000 0.000000 0.000000 
-3.720824 77.910912 3.387741 0.000000 0.000000 0.000000 -9.587079 -17.480356 1.392473 -58.149539 2.281606 21.217452 50.126226 -11.473649 -2.015107 -2.185726 -11.167122 -17.140238 0.000000 0.000000 0.000000 9.979265 -32.105393 -2.961255 -20.214167 -13.472780 -23.479878 48.189918 7.340111 0.484511 -11.272918 2.210188 17.675961 0.000000 0.000000 0.000000 0.633778 -19.646928 0.813380 5.996970 -30.241011 4.973266 9.507324 5.278402 -4.525028 5.458430 4.440631 -3.254398 0.000000 0.000000 0.000000 -0.689083 6.006981 -3.225971 -2.308151 2.736028 -0.751226 0.000000 0.000000 0.000000 -4.955563 4.128948 -2.788516 -3.951606 -7.098823 -2.495949 -34.305294 13.545062 -49.330365 -11.755787 -27.850117 -9.882392 0.000000 0.000000 0.000000 -5.397826 6.932197 -2.395170 -4.633306 22.607185 -0.235038 0.584848 -12.869070 48.379866 0.065907 13.848310 11.329076 0.000000 0.000000 0.000000 
-4.352476 78.064011 3.242964 0.000000 0.000000 0.000000 -8.576120 -19.228407 2.455156 -57.315594 1.622663 22.036806 49.872201 -11.523977 -1.740773 -2.426362 -11.305268 -16.776324 0.000000 0.000000 0.000000 10.179889 -31.409393 -2.059406 -19.962652 -13.416629 -22.326037 49.801979 7.002021 0.696914 -9.927388 2.002859 17.850981 0.000000 0.000000 0.000000 1.499970 -17.981245 1.399231 2.473324 -28.934529 3.978737 8.282092 5.865740 -4.478643 5.222358 3.931658 -3.273584 0.000000 0.000000 0.000000 -0.596566 6.020483 -3.313519 -2.321258 2.607781 -0.847053 0.000000 0.000000 0.000000 -4.914520 4.272869 -2.745625 -3.520231 -8.639192 -1.382307 -33.361089 12.983494 -48.783667 -11.442802 -29.176031 -10.146916 0.000000 0.000000 0.000000 -5.433152 6.987807 -2.474450 -4.064209 20.990906 -0.146793 7.623324 -11.228587 48.281740 3.185329 11.213438 10.916494 0.000000 0.000000 0.000000 
-4.696766 78.067551 3.225018 0.000000 0.000000 0.000000 -7.511666 -18.812148 3.877106 -56.382932 1.326896 23.183142 51.462771 -11.614244 -1.584581 -1.486609 -11.461088 -16.781855 0.000000 0.000000 0.000000 10.601947 -31.542281 -2.263321 -19.256305 -13.581608 -22.578567 51.555060 6.867360 0.409172 -8.656116 2.252427 17.467732 0.000000 0.000000 0.000000 2.050685 -19.888018 1.577137 1.420002 -26.363398 4.430379 10.137082 5.776355 -4.284132 5.482904 4.046759 -3.592291 0.000000 0.000000 0.000000 0.011467 5.912278 -3.417648 -2.298592 2.302613 -0.730193 0.000000 0.000000 0.000000 -4.980682 3.995088 -2.957076 -3.939122 -9.171122 -0.492154 -33.866120 14.342559 -48.669913 -12.673429 -30.433192 -10.578395 0.000000 0.000000 0.000000 -4.595954 7.469832 -2.861957 -3.902913 22.282714 0.017377 12.243981 -7.457894 46.115764 4.817957 13.479967 10.337101 0.000000 0.000000 0.000000 
-4.525612 78.243828 3.668478 0.000000 0.000000 0.000000 -7.286127 -17.786255 3.546176 -56.153987 1.792891 22.970186 51.322919 -11.308310 -1.492106 -1.827403 -11.070022 -16.390019 0.000000 0.000000 0.000000 10.882359 -30.227767 -1.678436 -19.041251 -13.360135 -21.870757 52.374341 6.953697 0.396146 -8.401463 2.319659 17.561931 0.000000 0.000000 0.000000 3.004914 -19.568401 2.474457 0.223274 -26.965930 4.611488 10.685004 5.593433 -4.739497 5.946533 3.991430 -3.654435 0.000000 0.000000 0.000000 -0.002686 6.010853 -3.519731 -2.275927 2.287627 -0.816386 0.000000 0.000000 0.000000 -4.876728 4.088315 -3.018765 -3.359900 -9.906056 0.008715 -33.700935 12.408962 -49.143477 -12.453664 -32.111810 -10.985242 0.000000 0.000000 0.000000 -4.399194 7.437641 -2.997861 -2.866007 22.415330 -0.751978 17.180504 -3.136285 45.028476 7.396933 14.281245 9.672851 0.000000 0.000000 0.000000 
-4.297350 78.409744 2.676313 0.000000 0.000000 0.000000 -7.158000 -16.872353 3.192116 -55.735833 2.180340 22.589256 51.518512 -10.903923 -1.569098 -1.575183 -10.623695 -16.236265 0.000000 0.000000 0.000000 10.767566 -30.669291 -2.240507 -19.022044 -13.352695 -22.453113 52.542511 6.832678 0.347364 -8.212755 2.279281 17.403358 0.000000 0.000000 0.000000 4.008506 -18.313779 3.133355 1.791259 -25.251344 5.714198 11.095736 5.843180 -4.910564 6.117736 4.096994 -3.784931 0.000000 0.000000 0.000000 -0.215386 6.011850 -3.488837 -2.439954 2.322960 -0.879544 0.000000 0.000000 0.000000 -5.011542 4.073449 -3.084635 -3.189793 -9.464395 -0.547553 -32.577772 12.891148 -49.160007 -12.450976 -31.753905 -11.259384 0.000000 0.000000 0.000000 -4.126406 7.544893 -2.898703 -2.591212 22.528059 -0.909394 23.536670 -0.313409 44.413186 10.157313 15.619295 9.040829 0.000000 0.000000 0.000000 
-3.847712 78.927513 2.126513 0.000000 0.000000 0.000000 -7.584691 -16.670767 2.271181 -56.055018 2.539885 21.822391 50.431306 -10.875481 -1.668332 -2.672742 -10.376137 -16.336510 0.000000 0.000000 0.000000 10.364150 -30.775716 -2.746308 -19.358390 -13.207715 -22.935803 51.782509 6.350546 0.311560 -8.623209 1.866882 16.903504 0.000000 0.000000 0.000000 4.350366 -16.958345 3.139508 2.208177 -25.291847 5.682413 11.535775 5.711088 -5.385815 6.279687 4.063424 -3.912965 0.000000 0.000000 0.000000 -0.160717 5.998890 -3.656721 -2.465574 2.376454 -0.946877 0.000000 0.000000 0.000000 -4.568077 4.005454 -3.197648 -2.808764 -9.430908 -0.734079 -32.598601 12.442451 -49.637707 -12.299181 -32.767341 -11.361846 0.000000 0.000000 0.000000 -3.844542 7.367653 -2.921317 -2.045721 21.609523 -0.307607 29.537717 2.446010 43.686563 12.191062 17.268948 8.578816 0.000000 0.000000 0.000000 
-3.691772 79.005913 2.276619 0.000000 0.000000 0.000000 -7.528162 -17.112049 2.689750 -56.092170 2.261911 22.185798 51.018921 -10.853689 -1.429884 -2.436931 -10.422175 -16.056523 0.000000 0.000000 0.000000 10.290467 -30.277156 -2.893123 -19.452392 -13.012527 -23.118455 51.407139 5.997640 0.384413 -8.890920 1.495380 16.693674 0.000000 0.000000 0.000000 4.448482 -16.939571 3.432642 3.212546 -22.078665 5.910100 11.712591 5.965443 -5.313927 6.367851 4.085138 -3.943435 0.000000 0.000000 0.000000 -0.021245 6.037826 -3.686082 -2.539311 2.363355 -0.963613 0.000000 0.000000 0.000000 -4.215510 4.291496 -3.149240 -2.516129 -8.707217 -0.815577 -31.002225 12.497325 -50.402220 -12.360140 -32.452503 -11.603013 0.000000 0.000000 0.000000 -3.080928 7.465090 -2.885059 -1.527793 21.827931 -0.061301 35.512909 5.564605 41.834584 14.950061 18.958399 7.554139 0.000000 0.000000 0.000000 
